<?xml version="1.0" encoding="utf-8"?>
<!-- Generator: Adobe Illustrator 17.0.0, SVG Export Plug-In . SVG Version: 6.00 Build 0)  -->
<!DOCTYPE svg PUBLIC "-//W3C//DTD SVG 1.1//EN" "http://www.w3.org/Graphics/SVG/1.1/DTD/svg11.dtd">
<svg version="1.1" id="Layer_1" xmlns="http://www.w3.org/2000/svg" xmlns:xlink="http://www.w3.org/1999/xlink" x="0px" y="0px"
	 width="381.333px" height="130.333px" viewBox="0 0 381.333 130.333" enable-background="new 0 0 381.333 130.333"
	 xml:space="preserve">
<g>
	<text transform="matrix(0.9816 0 0 1 35.1724 93.1397)" fill="#38B25D" font-family="'Averta-Black'" font-size="73.8832">RGAA</text>
	<g>
		<g>
			<path fill="#38B25D" d="M245.367,56.727V40.108h6.225c1.898,0,3.324,0.503,4.282,1.51c0.956,1.006,1.435,2.344,1.435,4.014
				c0,2.59-1.142,4.26-3.425,5.009l4.118,6.086h-3.865l-3.679-5.688h-1.875v5.688H245.367z M248.585,48.137h2.36
				c0.972,0,1.717-0.23,2.233-0.69c0.518-0.46,0.776-1.08,0.776-1.861c0-0.78-0.247-1.4-0.741-1.861
				c-0.494-0.46-1.202-0.69-2.128-0.69h-2.499V48.137z"/>
			<path fill="#38B25D" d="M263.764,56.727l-5.184-16.619h3.471l3.194,11.212h0.046l2.939-11.212h3.425l2.893,11.188h0.069
				l3.194-11.188h3.471l-5.184,16.619h-3.009l-3.101-11.82h-0.046l-3.17,11.82H263.764z"/>
			<path fill="#38B25D" d="M280.358,56.727l6.086-16.619h3.147l6.11,16.619h-3.402l-1.133-3.324h-6.294l-1.112,3.324H280.358z
				 M285.796,50.594h4.444l-2.199-6.507h-0.046L285.796,50.594z"/>
			<path fill="#38B25D" d="M297.83,56.727V40.108h3.194l7.382,11.212h0.046V40.108h3.216v16.619h-3.263l-7.289-10.978h-0.046v10.978
				H297.83z"/>
			<path fill="#38B25D" d="M315.254,56.727V40.108h5.439c2.576,0,4.644,0.769,6.202,2.306c1.558,1.537,2.338,3.546,2.338,6.027
				s-0.761,4.482-2.28,6.004c-1.52,1.521-3.584,2.282-6.191,2.282H315.254z M318.472,53.801h2.082c1.574,0,2.847-0.507,3.819-1.521
				c0.971-1.014,1.457-2.293,1.457-3.839c0-1.56-0.479-2.852-1.435-3.874c-0.957-1.022-2.175-1.533-3.656-1.533h-2.268V53.801z"/>
			<path fill="#38B25D" d="M329.812,56.727l6.086-16.619h3.147l6.11,16.619h-3.402l-1.133-3.324h-6.294l-1.112,3.324H329.812z
				 M335.25,50.594h4.444l-2.199-6.507h-0.046L335.25,50.594z"/>
		</g>
		<g>
			<path fill="#38B25D" d="M253.869,76.899c-2.766,0-5.051-0.753-6.855-2.259c-1.805-1.506-2.706-3.585-2.706-6.238
				c0-2.481,0.837-4.533,2.512-6.156s3.956-2.434,6.843-2.434c1.392,0,2.775,0.269,4.149,0.807c1.375,0.538,2.509,1.299,3.403,2.282
				l-3.48,2.645c-1.168-1.03-2.526-1.545-4.072-1.545c-1.185,0-2.186,0.395-3.003,1.182c-0.816,0.788-1.224,1.861-1.224,3.219
				c0,1.249,0.395,2.298,1.185,3.148c0.791,0.851,1.873,1.276,3.248,1.276c0.945,0,1.855-0.179,2.733-0.538v-1.545h-3.119v-3.581
				h7.732v7.724c-0.859,0.578-1.955,1.057-3.286,1.44C256.597,76.708,255.243,76.899,253.869,76.899z"/>
			<path fill="#38B25D" d="M274.951,76.689l-0.928-2.692h-5.875l-0.928,2.692h-5.129l6.649-16.619h4.691l6.624,16.619H274.951z
				 M269.41,70.275h3.351l-1.65-4.798h-0.052L269.41,70.275z"/>
			<path fill="#38B25D" d="M295.492,60.07h4.974v16.619h-4.845v-8.192h-0.077l-3.067,5.196h-3.119l-3.067-5.22h-0.077v8.216h-4.845
				V60.07h4.949l4.561,8.216h0.103L295.492,60.07z"/>
			<path fill="#38B25D" d="M303.301,76.689V60.07h4.974v16.619H303.301z"/>
			<path fill="#38B25D" d="M322.218,60.07h4.897v16.619h-5.078l-6.005-9.105h-0.051v9.105h-4.872V60.07h4.922l6.109,9.363h0.077
				V60.07z"/>
			<path fill="#38B25D" d="M338.815,76.899c-2.766,0-5.051-0.753-6.855-2.259c-1.805-1.506-2.706-3.585-2.706-6.238
				c0-2.481,0.837-4.533,2.512-6.156c1.675-1.623,3.956-2.434,6.843-2.434c1.392,0,2.775,0.269,4.149,0.807
				c1.375,0.538,2.509,1.299,3.403,2.282l-3.48,2.645c-1.168-1.03-2.526-1.545-4.072-1.545c-1.185,0-2.186,0.395-3.003,1.182
				c-0.816,0.788-1.224,1.861-1.224,3.219c0,1.249,0.395,2.298,1.185,3.148c0.791,0.851,1.873,1.276,3.248,1.276
				c0.945,0,1.855-0.179,2.733-0.538v-1.545h-3.119v-3.581h7.732v7.724c-0.859,0.578-1.955,1.057-3.286,1.44
				C341.543,76.708,340.189,76.899,338.815,76.899z"/>
		</g>
		<g>
			<path fill="#38B25D" d="M243.993,92.737l4.012-12.754h2.074l4.027,12.754h-2.243l-0.747-2.551h-4.149l-0.733,2.551H243.993z
				 M247.577,88.03h2.929l-1.449-4.994h-0.031L247.577,88.03z"/>
			<path fill="#38B25D" d="M258.773,92.898c-1.515,0-2.832-0.676-3.951-2.03l1.297-1.868c0.387,0.515,0.821,0.91,1.304,1.185
				c0.484,0.276,0.949,0.413,1.396,0.413c0.499,0,0.88-0.122,1.144-0.368c0.264-0.245,0.397-0.571,0.397-0.979
				c0-0.443-0.135-0.784-0.405-1.024c-0.269-0.24-0.761-0.503-1.472-0.79c-0.387-0.155-0.714-0.302-0.983-0.44
				c-0.27-0.138-0.56-0.32-0.87-0.548c-0.31-0.227-0.563-0.47-0.756-0.727c-0.193-0.258-0.353-0.581-0.48-0.97
				c-0.127-0.389-0.191-0.817-0.191-1.284c0-1.018,0.335-1.877,1.007-2.578c0.671-0.7,1.495-1.057,2.471-1.069
				c1.322,0,2.542,0.539,3.66,1.617l-1.251,1.904c-0.875-0.838-1.663-1.257-2.364-1.257c-0.387,0-0.699,0.114-0.938,0.341
				c-0.239,0.228-0.364,0.539-0.374,0.934c0,0.371,0.13,0.665,0.389,0.88c0.259,0.216,0.74,0.485,1.441,0.809
				c1.119,0.515,1.851,0.91,2.196,1.185c0.783,0.623,1.175,1.527,1.175,2.712c0,0.887-0.204,1.638-0.61,2.254
				c-0.407,0.617-0.89,1.054-1.449,1.311C259.999,92.77,259.404,92.898,258.773,92.898z"/>
			<path fill="#38B25D" d="M267.651,92.898c-1.515,0-2.832-0.676-3.951-2.03l1.297-1.868c0.387,0.515,0.821,0.91,1.304,1.185
				c0.484,0.276,0.949,0.413,1.396,0.413c0.499,0,0.879-0.122,1.144-0.368c0.264-0.245,0.397-0.571,0.397-0.979
				c0-0.443-0.135-0.784-0.405-1.024c-0.269-0.24-0.761-0.503-1.472-0.79c-0.387-0.155-0.714-0.302-0.983-0.44
				c-0.27-0.138-0.56-0.32-0.87-0.548c-0.31-0.227-0.563-0.47-0.756-0.727c-0.193-0.258-0.353-0.581-0.48-0.97
				c-0.127-0.389-0.191-0.817-0.191-1.284c0-1.018,0.335-1.877,1.007-2.578c0.671-0.7,1.495-1.057,2.471-1.069
				c1.322,0,2.542,0.539,3.66,1.617l-1.251,1.904c-0.875-0.838-1.663-1.257-2.364-1.257c-0.387,0-0.699,0.114-0.938,0.341
				c-0.239,0.228-0.364,0.539-0.374,0.934c0,0.371,0.13,0.665,0.389,0.88c0.259,0.216,0.74,0.485,1.441,0.809
				c1.119,0.515,1.851,0.91,2.196,1.185c0.783,0.623,1.175,1.527,1.175,2.712c0,0.887-0.204,1.638-0.61,2.254
				c-0.407,0.617-0.89,1.054-1.449,1.311C268.877,92.77,268.281,92.898,267.651,92.898z"/>
			<path fill="#38B25D" d="M278.343,92.898c-1.627,0-2.954-0.613-3.981-1.841c-1.028-1.227-1.541-2.793-1.541-4.697
				c0-1.904,0.513-3.47,1.541-4.698c1.027-1.227,2.354-1.841,3.981-1.841c1.597,0,2.913,0.608,3.951,1.823
				c1.037,1.216,1.555,2.788,1.555,4.716c0,1.928-0.518,3.5-1.555,4.715C281.257,92.291,279.94,92.898,278.343,92.898z
				 M278.343,90.527c0.936,0,1.713-0.395,2.334-1.185c0.62-0.79,0.931-1.784,0.931-2.982c0-1.198-0.31-2.192-0.931-2.982
				c-0.62-0.79-1.398-1.185-2.334-1.185c-0.966,0-1.757,0.401-2.372,1.204c-0.615,0.803-0.923,1.79-0.923,2.964
				c0,1.174,0.308,2.162,0.923,2.964C276.586,90.126,277.377,90.527,278.343,90.527z"/>
			<path fill="#38B25D" d="M290.836,92.862c-1.577,0-2.891-0.571-3.943-1.715c-1.053-1.143-1.579-2.727-1.579-4.751
				c0-1.892,0.491-3.461,1.472-4.706c0.981-1.246,2.321-1.868,4.019-1.868c0.803,0,1.584,0.206,2.342,0.62
				c0.758,0.413,1.416,1.027,1.975,1.841l-1.587,1.563c-0.753-1.078-1.662-1.617-2.73-1.617c-0.936,0-1.711,0.38-2.326,1.141
				c-0.615,0.761-0.923,1.769-0.923,3.027c0,1.185,0.305,2.162,0.915,2.928c0.61,0.767,1.398,1.15,2.364,1.15
				c1.077,0,1.988-0.539,2.73-1.617l1.571,1.599C294.04,92.06,292.606,92.862,290.836,92.862z"/>
			<path fill="#38B25D" d="M296.831,92.737V79.983h2.181v12.754H296.831z"/>
			<path fill="#38B25D" d="M300.507,92.737l4.012-12.754h2.074l4.027,12.754h-2.243l-0.747-2.551h-4.149l-0.733,2.551H300.507z
				 M304.092,88.03h2.929l-1.449-4.994h-0.031L304.092,88.03z"/>
			<path fill="#38B25D" d="M313.122,92.737V82.228h-2.959v-2.246h8.13v2.246h-3.005v10.509H313.122z"/>
			<path fill="#38B25D" d="M319.94,92.737V79.983h2.181v12.754H319.94z"/>
			<path fill="#38B25D" d="M329.626,92.898c-1.627,0-2.954-0.613-3.981-1.841c-1.028-1.227-1.541-2.793-1.541-4.697
				c0-1.904,0.513-3.47,1.541-4.698c1.027-1.227,2.354-1.841,3.981-1.841c1.597,0,2.913,0.608,3.951,1.823
				c1.037,1.216,1.555,2.788,1.555,4.716c0,1.928-0.518,3.5-1.555,4.715C332.54,92.291,331.223,92.898,329.626,92.898z
				 M329.626,90.527c0.936,0,1.713-0.395,2.334-1.185c0.62-0.79,0.931-1.784,0.931-2.982c0-1.198-0.311-2.192-0.931-2.982
				s-1.398-1.185-2.334-1.185c-0.966,0-1.757,0.401-2.372,1.204c-0.615,0.803-0.923,1.79-0.923,2.964
				c0,1.174,0.308,2.162,0.923,2.964C327.869,90.126,328.66,90.527,329.626,90.527z"/>
			<path fill="#38B25D" d="M337.039,92.737V79.983h2.105l4.866,8.605h0.031v-8.605h2.12v12.754h-2.151l-4.805-8.425h-0.031v8.425
				H337.039z"/>
		</g>
	</g>
	<rect x="237.646" y="40.33" fill="#38B25D" width="2.744" height="52.945"/>
</g>
</svg>
